# xmcd
#
# Track frame offsets: 
#        150
#        18122
#        33702
#        50452
#        66915
#        84167
#        107365
#        127372
#        144445
#        167790
#        187442
#        210412
#        231162
#        248475
#        266887
#        286397
#        304937
#
# Disc length: 4374 seconds
#
# Revision: 3
# Processed by: cddbd v1.5.2PL0 Copyright (c) Steve Scherf et al.
# Submitted via: ExactAudioCopy v1.0b1
#
DISCID=f8111411
DTITLE=Shalamar - Greatest Hits
DYEAR=1999
DGENRE=R&B
TTITLE0=Uptown Festival Pt. 1 (Medley)
TTITLE1=Take That To The Bank
TTITLE2=Second Time Around
TTITLE3=I Owe You One
TTITLE4=Make That Move
TTITLE5=This Is For The Lover In You
TTITLE6=Somewhere There's A Love
TTITLE7=Sweeter As The Days Go By
TTITLE8=A Night To Remember
TTITLE9=I Can Make You Feel Good
TTITLE10=Dead Giveaway
TTITLE11=Over And Over
TTITLE12=You Can Count On Me
TTITLE13=Dancing In The Sheets
TTITLE14=Don't Get Stopped In Beverly Hills
TTITLE15=Games
TTITLE16=Why Lead Me On
EXTD=www.RapMusicGuide.com\n
EXTT0=
EXTT1=
EXTT2=
EXTT3=
EXTT4=
EXTT5=
EXTT6=
EXTT7=
EXTT8=
EXTT9=
EXTT10=
EXTT11=
EXTT12=
EXTT13=
EXTT14=
EXTT15=
EXTT16=
PLAYORDER=
